<?xml version="1.0" encoding="utf-8"?>
<!-- Generator: Adobe Illustrator 19.2.1, SVG Export Plug-In . SVG Version: 6.00 Build 0)  -->
<svg version="1.1" id="layer" xmlns="http://www.w3.org/2000/svg" xmlns:xlink="http://www.w3.org/1999/xlink" x="0px" y="0px"
	 viewBox="0 0 652 652" style="enable-background:new 0 0 652 652;" xml:space="preserve">
<style type="text/css">
	.st0{fill:#41454A;}
</style>
<g>
	<path class="st0" d="M137.9,353.2c-13.2,0-20.7-14.5-20.7-33.5c0-17.4,5.8-31.4,19.4-31.4c9.9,0,15.7,6.6,18.2,18.6h4.5v-17.4
		c-5.8-3.7-13.6-5.8-22.7-5.8c-20.7,0-37.6,15.3-37.6,38.8c0,21.5,14.5,35.5,37.2,35.5c9.9,0,18.6-2.5,24.4-6.6l1.7-19.8h-4.5
		C154.1,347,147,353.2,137.9,353.2z"/>
	<path class="st0" d="M238.8,349.5l-26-65.3h-18.6l3.3,8.3l-21.9,57c-0.8,2.9-3.3,3.3-5.8,3.7v3.7h21.5v-3.7l0,0l0,0l0,0l0,0
		c-5.8-0.4-9.1-1.2-6.6-7.4c0.4-0.4,2.1-5,4.1-10.7h26.4l3.7,9.5c0.4,1.7,0.8,2.9,0.8,4.1c0,3.3-2.9,4.5-8.3,4.5v3.7h33.9v-3.7
		C241.7,352.8,239.6,352,238.8,349.5z M190.8,328c4.1-10.3,8.7-22.3,10.3-26.9l10.7,26.9H190.8z"/>
	<path class="st0" d="M285,284.6h-32.6v3.7c7,0.8,7.9,1.7,7.9,7v50.4c0,5.4-0.8,6.2-7.9,7v3.7h34.7c22.7,0,38.4-13.6,38.4-37.2
		C326,300.3,312.7,284.6,285,284.6z M286.7,352.8h-1.2c-5,0-7.4-1.2-7.4-7.4v-56.2h4.1c16.9,0,25.6,13.6,25.6,32.6
		C307.4,340.8,299.1,352.8,286.7,352.8z"/>
	<path class="st0" d="M372.2,352.8h-5c-6.2,0-8.7-1.7-8.7-7v-23.6h11.6c4.5,0,6.2,2.5,7,9.5h4.1v-24h-4.1c-0.8,6.6-2.5,9.5-7,9.5
		h-11.6v-28.1h12.8c8.7,0,11.6,3.3,16.9,14.9h3.3l-0.4-19.4h-57.9v3.7c7,0.8,7.9,1.7,7.9,7v50.4c0,5.4-0.8,6.2-7.9,7v3.7h58.7
		l3.3-21.5h-4.1C383.8,348.3,380.9,352.8,372.2,352.8z"/>
	<path class="st0" d="M488.8,347l-6.2-50.8c0-5.4,2.1-7,8.7-7.4v-4.1H466c0,1.2-0.4,2.1-0.4,2.9l-1.2,3.3l-14.9,42.6l-15.7-42.1
		c-0.8-2.1-1.7-4.1-1.7-6.2h-26v3.7c6.6,0.4,8.7,2.1,8.7,7.4l-6.6,50.8c-0.4,4.5-2.5,5.8-8.7,6.2v3.7h24.4v-3.7
		c-1.7,0-2.9-0.4-4.1-0.4c-2.5-0.8-5.4-3.3-4.5-9.5c0.8-7.9,3.7-29.8,5-38.4l19.4,52.5h8.3l17.8-51.7l5,38.4c0,0.4,0,0.8,0,1.2v1.2
		c0,5-2.5,6.2-9.9,6.6v3.7H497v-3.7C491.7,352.8,489.6,352,488.8,347z"/>
	<path class="st0" d="M505.7,288.8c7,0.8,7.9,1.7,7.9,7v50.4c0,5.4-0.8,6.2-7.9,7v3.7h33.5v-3.7c-7-0.8-7.9-1.7-7.9-7v-50.4
		c0-5.4,0.8-6.2,7.9-7v-4.1h-33.5V288.8z"/>
	<path class="st0" d="M90.4,349.5l-26-65.3H45.8l3.3,8.3l-22.3,57c-0.8,2.9-3.3,3.3-5.8,3.7v3.7h21.5v-3.7l0,0l0,0l0,0l0,0
		c-5.8-0.4-9.1-1.2-6.6-7.4c0.4-0.4,2.1-5,4.1-10.7h26.4l3.7,9.5c0.4,1.7,0.8,2.9,0.8,4.1c0,3.3-2.9,4.5-8.3,4.5v3.7h33.9v-3.7
		C93.7,352.8,91.2,352,90.4,349.5z M42.5,328c4.1-10.3,8.7-22.3,10.3-26.9L63.6,328H42.5z"/>
	<path class="st0" d="M616.9,352c-1.2-0.4-1.7-1.2-2.5-2.5l-26-64.9h-18.6l0,0l3.3,8.3l-21.9,57c-0.8,2.9-3.3,3.3-5.8,3.7v3.7h21.5
		l0,0v-3.7l0,0l0,0l0,0l0,0c-5.8-0.4-9.1-1.2-6.6-7.4c0.4-0.4,2.1-5,4.1-10.7h26.4l3.7,9.5c0.4,1.7,0.8,2.9,0.8,4.1
		c0,3.3-2.9,4.5-8.3,4.5v3.7H621v-3.7C618.9,352.8,617.7,352.8,616.9,352z M566.9,328c4.1-10.3,8.7-22.3,10.3-26.9l10.7,26.9H566.9z
		"/>
</g>
</svg>
